<svg xmlns="http://www.w3.org/2000/svg" width="371" height="62.37646066216296" viewBox="0 0 371 62.37646066216296" class="editor-view__logo-preview" data-v-8d8ae3dd="" data-v-b9d2a614=""><svg id="mark" viewBox="0 0 52 68" width="34" height="44.46153846153847" x="0" y="8.957461100312248" data-v-8d8ae3dd="" style="fill: rgb(242, 242, 242);"><rect x="0" y="0" width="100%" height="100%" fill="none" data-v-8d8ae3dd=""></rect><g data-v-8d8ae3dd=""><path xmlns="http://www.w3.org/2000/svg" d="M678,88 L702,88 C705.313708,88 708,85.3137085 708,82 L708,73.7769836 C703.992023,72.8675252 701,69.2831748 701,65 C701,60.0294373 705.029437,56 710,56 C714.970563,56 719,60.0294373 719,65 C719,69.2831748 716.007977,72.8675252 712,73.7769836 L712,82 C712,87.5228475 707.522847,92 702,92 L678,92 L678,106.223016 C682.007977,107.132475 685,110.716825 685,115 C685,119.970563 680.970563,124 676,124 C671.029437,124 667,119.970563 667,115 C667,110.716825 669.992023,107.132475 674,106.223016 L674,73.7769836 C669.992023,72.8675252 667,69.2831748 667,65 C667,60.0294373 671.029437,56 676,56 C680.970563,56 685,60.0294373 685,65 C685,69.2831748 682.007977,72.8675252 678,73.7769836 L678,88 Z M676,70 C678.761424,70 681,67.7614237 681,65 C681,62.2385763 678.761424,60 676,60 C673.238576,60 671,62.2385763 671,65 C671,67.7614237 673.238576,70 676,70 Z M676,120 C678.761424,120 681,117.761424 681,115 C681,112.238576 678.761424,110 676,110 C673.238576,110 671,112.238576 671,115 C671,117.761424 673.238576,120 676,120 Z M710,70 C712.761424,70 715,67.7614237 715,65 C715,62.2385763 712.761424,60 710,60 C707.238576,60 705,62.2385763 705,65 C705,67.7614237 707.238576,70 710,70 Z" transform="translate(-667 -56)"></path></g></svg><svg id="name" viewBox="0 0 321.9540100097656 33.672000885009766" width="321" height="33.57222444211918" x="50" y="4" data-v-8d8ae3dd="" style="fill: rgb(242, 242, 242);"><rect x="0" y="0" width="100%" height="100%" fill="none" data-v-8d8ae3dd=""></rect><g data-v-8d8ae3dd=""><path xmlns="http://www.w3.org/2000/svg" d="M13.39 33.12L0 33.12L0 0.92L12.93 0.92Q17.94 0.92 20.59 3.24Q23.23 5.57 23.23 9.20L23.23 9.20Q23.23 12.24 21.60 14.05Q19.96 15.87 17.62 16.51L17.62 16.51Q20.38 17.07 22.17 19.25Q23.97 21.44 23.97 24.33L23.97 24.33Q23.97 28.15 21.21 30.64Q18.45 33.12 13.39 33.12L13.39 33.12ZM5.89 5.66L5.89 14.44L12.05 14.44Q14.54 14.44 15.87 13.29Q17.20 12.14 17.20 10.03L17.20 10.03Q17.20 8.00 15.89 6.83Q14.58 5.66 11.96 5.66L11.96 5.66L5.89 5.66ZM5.89 18.86L5.89 28.34L12.47 28.34Q15.09 28.34 16.54 27.12Q17.99 25.90 17.99 23.69L17.99 23.69Q17.99 21.44 16.47 20.15Q14.95 18.86 12.37 18.86L12.37 18.86L5.89 18.86ZM36.75 33.67L36.75 33.67Q33.81 33.67 31.92 32.73Q30.04 31.79 29.12 30.22Q28.20 28.66 28.20 26.77L28.20 26.77Q28.20 23.60 30.68 21.62Q33.17 19.64 38.13 19.64L38.13 19.64L43.93 19.64L43.93 19.09Q43.93 16.74 42.60 15.64Q41.26 14.54 39.28 14.54L39.28 14.54Q37.49 14.54 36.16 15.39Q34.82 16.24 34.50 17.89L34.50 17.89L28.75 17.89Q28.98 15.41 30.43 13.57Q31.88 11.73 34.18 10.74Q36.48 9.75 39.33 9.75L39.33 9.75Q44.21 9.75 47.01 12.19Q49.82 14.63 49.82 19.09L49.82 19.09L49.82 33.12L44.80 33.12L44.25 29.44Q43.24 31.28 41.42 32.48Q39.61 33.67 36.75 33.67ZM38.09 29.07L38.09 29.07Q40.62 29.07 42.02 27.42Q43.42 25.76 43.79 23.32L43.79 23.32L38.78 23.32Q36.43 23.32 35.42 24.17Q34.41 25.02 34.41 26.27L34.41 26.27Q34.41 27.60 35.42 28.34Q36.43 29.07 38.09 29.07ZM64.86 33.67L64.86 33.67Q61.82 33.67 59.52 32.68Q57.22 31.69 55.84 29.95Q54.46 28.20 54.19 25.90L54.19 25.90L60.12 25.90Q60.40 27.23 61.62 28.17Q62.84 29.12 64.77 29.12L64.77 29.12Q66.70 29.12 67.60 28.34Q68.49 27.55 68.49 26.54L68.49 26.54Q68.49 25.07 67.21 24.54Q65.92 24.01 63.62 23.51L63.62 23.51Q62.15 23.18 60.63 22.72Q59.11 22.26 57.84 21.55Q56.58 20.84 55.80 19.71Q55.02 18.58 55.02 16.93L55.02 16.93Q55.02 13.89 57.43 11.82Q59.85 9.75 64.22 9.75L64.22 9.75Q68.26 9.75 70.68 11.64Q73.09 13.52 73.55 16.84L73.55 16.84L67.99 16.84Q67.48 14.31 64.17 14.31L64.17 14.31Q62.51 14.31 61.62 14.95Q60.72 15.59 60.72 16.56L60.72 16.56Q60.72 17.57 62.05 18.17Q63.39 18.77 65.60 19.27L65.60 19.27Q67.99 19.83 69.99 20.49Q71.99 21.16 73.19 22.47Q74.38 23.78 74.38 26.22L74.38 26.22Q74.43 28.34 73.28 30.04Q72.13 31.74 69.97 32.71Q67.80 33.67 64.86 33.67ZM87.45 33.67L87.45 33.67Q84.50 33.67 82.62 32.73Q80.73 31.79 79.81 30.22Q78.89 28.66 78.89 26.77L78.89 26.77Q78.89 23.60 81.37 21.62Q83.86 19.64 88.83 19.64L88.83 19.64L94.62 19.64L94.62 19.09Q94.62 16.74 93.29 15.64Q91.95 14.54 89.98 14.54L89.98 14.54Q88.18 14.54 86.85 15.39Q85.51 16.24 85.19 17.89L85.19 17.89L79.44 17.89Q79.67 15.41 81.12 13.57Q82.57 11.73 84.87 10.74Q87.17 9.75 90.02 9.75L90.02 9.75Q94.90 9.75 97.70 12.19Q100.51 14.63 100.51 19.09L100.51 19.09L100.51 33.12L95.50 33.12L94.94 29.44Q93.93 31.28 92.12 32.48Q90.30 33.67 87.45 33.67ZM88.78 29.07L88.78 29.07Q91.31 29.07 92.71 27.42Q94.12 25.76 94.48 23.32L94.48 23.32L89.47 23.32Q87.12 23.32 86.11 24.17Q85.10 25.02 85.10 26.27L85.10 26.27Q85.10 27.60 86.11 28.34Q87.12 29.07 88.78 29.07ZM112.01 33.12L106.12 33.12L106.12 10.30L111.32 10.30L111.78 14.17Q112.84 12.14 114.84 10.95Q116.84 9.75 119.55 9.75L119.55 9.75Q123.79 9.75 126.13 12.42Q128.48 15.09 128.48 20.24L128.48 20.24L128.48 33.12L122.59 33.12L122.59 20.79Q122.59 17.85 121.39 16.28Q120.20 14.72 117.67 14.72L117.67 14.72Q115.18 14.72 113.60 16.47Q112.01 18.22 112.01 21.34L112.01 21.34L112.01 33.12ZM148.26 33.12L144.26 33.12Q140.67 33.12 138.51 31.37Q136.34 29.62 136.34 25.16L136.34 25.16L136.34 15.23L132.43 15.23L132.43 10.30L136.34 10.30L137.03 4.19L142.23 4.19L142.23 10.30L148.40 10.30L148.40 15.23L142.23 15.23L142.23 25.21Q142.23 26.86 142.94 27.48Q143.66 28.11 145.41 28.11L145.41 28.11L148.26 28.11L148.26 33.12ZM170.43 33.12L164.54 33.12L164.54 0.92L171.53 0.92L181.79 21.34L191.91 0.92L198.90 0.92L198.90 33.12L193.02 33.12L193.02 10.90L184.05 28.52L179.40 28.52L170.43 10.90L170.43 33.12ZM212.89 33.67L212.89 33.67Q209.94 33.67 208.06 32.73Q206.17 31.79 205.25 30.22Q204.33 28.66 204.33 26.77L204.33 26.77Q204.33 23.60 206.82 21.62Q209.30 19.64 214.27 19.64L214.27 19.64L220.06 19.64L220.06 19.09Q220.06 16.74 218.73 15.64Q217.40 14.54 215.42 14.54L215.42 14.54Q213.62 14.54 212.29 15.39Q210.96 16.24 210.63 17.89L210.63 17.89L204.88 17.89Q205.11 15.41 206.56 13.57Q208.01 11.73 210.31 10.74Q212.61 9.75 215.46 9.75L215.46 9.75Q220.34 9.75 223.15 12.19Q225.95 14.63 225.95 19.09L225.95 19.09L225.95 33.12L220.94 33.12L220.39 29.44Q219.37 31.28 217.56 32.48Q215.74 33.67 212.89 33.67ZM214.22 29.07L214.22 29.07Q216.75 29.07 218.16 27.42Q219.56 25.76 219.93 23.32L219.93 23.32L214.91 23.32Q212.57 23.32 211.55 24.17Q210.54 25.02 210.54 26.27L210.54 26.27Q210.54 27.60 211.55 28.34Q212.57 29.07 214.22 29.07ZM237.45 33.12L231.56 33.12L231.56 10.30L236.76 10.30L237.22 14.17Q238.28 12.14 240.28 10.95Q242.28 9.75 245.00 9.75L245.00 9.75Q249.23 9.75 251.57 12.42Q253.92 15.09 253.92 20.24L253.92 20.24L253.92 33.12L248.03 33.12L248.03 20.79Q248.03 17.85 246.84 16.28Q245.64 14.72 243.11 14.72L243.11 14.72Q240.63 14.72 239.04 16.47Q237.45 18.22 237.45 21.34L237.45 21.34L237.45 33.12ZM270.02 33.67L270.02 33.67Q266.80 33.67 264.27 32.11Q261.74 30.54 260.27 27.83Q258.80 25.12 258.80 21.67L258.80 21.67Q258.80 18.22 260.27 15.52Q261.74 12.83 264.27 11.29Q266.80 9.75 270.02 9.75L270.02 9.75Q272.60 9.75 274.53 10.72Q276.46 11.68 277.66 13.43L277.66 13.43L277.66 0L283.54 0L283.54 33.12L278.30 33.12L277.66 29.85Q276.55 31.37 274.74 32.52Q272.92 33.67 270.02 33.67ZM271.26 28.52L271.26 28.52Q274.11 28.52 275.93 26.61Q277.75 24.70 277.75 21.71L277.75 21.71Q277.75 18.72 275.93 16.81Q274.11 14.90 271.26 14.90L271.26 14.90Q268.46 14.90 266.62 16.79Q264.78 18.68 264.78 21.67L264.78 21.67Q264.78 24.66 266.62 26.59Q268.46 28.52 271.26 28.52ZM297.39 33.67L297.39 33.67Q294.45 33.67 292.56 32.73Q290.67 31.79 289.75 30.22Q288.83 28.66 288.83 26.77L288.83 26.77Q288.83 23.60 291.32 21.62Q293.80 19.64 298.77 19.64L298.77 19.64L304.57 19.64L304.57 19.09Q304.57 16.74 303.23 15.64Q301.90 14.54 299.92 14.54L299.92 14.54Q298.13 14.54 296.79 15.39Q295.46 16.24 295.14 17.89L295.14 17.89L289.39 17.89Q289.62 15.41 291.07 13.57Q292.51 11.73 294.81 10.74Q297.11 9.75 299.97 9.75L299.97 9.75Q304.84 9.75 307.65 12.19Q310.45 14.63 310.45 19.09L310.45 19.09L310.45 33.12L305.44 33.12L304.89 29.44Q303.88 31.28 302.06 32.48Q300.24 33.67 297.39 33.67ZM298.72 29.07L298.72 29.07Q301.25 29.07 302.66 27.42Q304.06 25.76 304.43 23.32L304.43 23.32L299.41 23.32Q297.07 23.32 296.06 24.17Q295.04 25.02 295.04 26.27L295.04 26.27Q295.04 27.60 296.06 28.34Q297.07 29.07 298.72 29.07ZM321.95 33.12L316.07 33.12L316.07 0L321.95 0L321.95 33.12Z"></path></g></svg><svg id="slogan" viewBox="0 0 194.52000427246094 20.860000610351562" width="194" height="20.804236220043784" x="50" y="41.57222444211918" data-v-8d8ae3dd="" style="fill: rgb(242, 242, 242);"><rect x="0" y="0" width="100%" height="100%" fill="none" data-v-8d8ae3dd=""></rect><g data-v-8d8ae3dd=""><path xmlns="http://www.w3.org/2000/svg" d="M2.56 16.22L0 16.22L0 2.22L2.56 2.22L2.56 8.04L8.84 8.04L8.84 2.22L11.40 2.22L11.40 16.22L8.84 16.22L8.84 10.12L2.56 10.12L2.56 16.22ZM17.48 16.46L17.48 16.46Q16.20 16.46 15.38 16.05Q14.56 15.64 14.16 14.96Q13.76 14.28 13.76 13.46L13.76 13.46Q13.76 12.08 14.84 11.22Q15.92 10.36 18.08 10.36L18.08 10.36L20.60 10.36L20.60 10.12Q20.60 9.10 20.02 8.62Q19.44 8.14 18.58 8.14L18.58 8.14Q17.80 8.14 17.22 8.51Q16.64 8.88 16.50 9.60L16.50 9.60L14.00 9.60Q14.10 8.52 14.73 7.72Q15.36 6.92 16.36 6.49Q17.36 6.06 18.60 6.06L18.60 6.06Q20.72 6.06 21.94 7.12Q23.16 8.18 23.16 10.12L23.16 10.12L23.16 16.22L20.98 16.22L20.74 14.62Q20.30 15.42 19.51 15.94Q18.72 16.46 17.48 16.46ZM18.06 14.46L18.06 14.46Q19.16 14.46 19.77 13.74Q20.38 13.02 20.54 11.96L20.54 11.96L18.36 11.96Q17.34 11.96 16.90 12.33Q16.46 12.70 16.46 13.24L16.46 13.24Q16.46 13.82 16.90 14.14Q17.34 14.46 18.06 14.46ZM29.70 16.46L29.70 16.46Q28.38 16.46 27.38 16.03Q26.38 15.60 25.78 14.84Q25.18 14.08 25.06 13.08L25.06 13.08L27.64 13.08Q27.76 13.66 28.29 14.07Q28.82 14.48 29.66 14.48L29.66 14.48Q30.50 14.48 30.89 14.14Q31.28 13.80 31.28 13.36L31.28 13.36Q31.28 12.72 30.72 12.49Q30.16 12.26 29.16 12.04L29.16 12.04Q28.52 11.90 27.86 11.70Q27.20 11.50 26.65 11.19Q26.10 10.88 25.76 10.39Q25.42 9.90 25.42 9.18L25.42 9.18Q25.42 7.86 26.47 6.96Q27.52 6.06 29.42 6.06L29.42 6.06Q31.18 6.06 32.23 6.88Q33.28 7.70 33.48 9.14L33.48 9.14L31.06 9.14Q30.84 8.04 29.40 8.04L29.40 8.04Q28.68 8.04 28.29 8.32Q27.90 8.60 27.90 9.02L27.90 9.02Q27.90 9.46 28.48 9.72Q29.06 9.98 30.02 10.20L30.02 10.20Q31.06 10.44 31.93 10.73Q32.80 11.02 33.32 11.59Q33.84 12.16 33.84 13.22L33.84 13.22Q33.86 14.14 33.36 14.88Q32.86 15.62 31.92 16.04Q30.98 16.46 29.70 16.46ZM38.66 16.22L36.10 16.22L36.10 1.82L38.66 1.82L38.66 7.82Q39.16 7.00 40.01 6.53Q40.86 6.06 41.96 6.06L41.96 6.06Q43.80 6.06 44.81 7.22Q45.82 8.38 45.82 10.62L45.82 10.62L45.82 16.22L43.28 16.22L43.28 10.86Q43.28 9.58 42.77 8.90Q42.26 8.22 41.16 8.22L41.16 8.22Q40.08 8.22 39.37 8.98Q38.66 9.74 38.66 11.10L38.66 11.10L38.66 16.22ZM58.90 16.22L56.34 16.22L56.34 4.28L52.26 4.28L52.26 2.22L63.00 2.22L63.00 4.28L58.90 4.28L58.90 16.22ZM66.56 16.46L66.56 16.46Q65.28 16.46 64.46 16.05Q63.64 15.64 63.24 14.96Q62.84 14.28 62.84 13.46L62.84 13.46Q62.84 12.08 63.92 11.22Q65 10.36 67.16 10.36L67.16 10.36L69.68 10.36L69.68 10.12Q69.68 9.10 69.10 8.62Q68.52 8.14 67.66 8.14L67.66 8.14Q66.88 8.14 66.30 8.51Q65.72 8.88 65.58 9.60L65.58 9.60L63.08 9.60Q63.18 8.52 63.81 7.72Q64.44 6.92 65.44 6.49Q66.44 6.06 67.68 6.06L67.68 6.06Q69.80 6.06 71.02 7.12Q72.24 8.18 72.24 10.12L72.24 10.12L72.24 16.22L70.06 16.22L69.82 14.62Q69.38 15.42 68.59 15.94Q67.80 16.46 66.56 16.46ZM67.14 14.46L67.14 14.46Q68.24 14.46 68.85 13.74Q69.46 13.02 69.62 11.96L69.62 11.96L67.44 11.96Q66.42 11.96 65.98 12.33Q65.54 12.70 65.54 13.24L65.54 13.24Q65.54 13.82 65.98 14.14Q66.42 14.46 67.14 14.46ZM78.88 13.26L78.88 13.26Q78.16 13.26 77.54 13.10L77.54 13.10L76.80 13.84Q77.14 14.02 77.72 14.14Q78.30 14.26 79.60 14.38L79.60 14.38Q81.58 14.56 82.48 15.32Q83.38 16.08 83.38 17.42L83.38 17.42Q83.38 18.30 82.90 19.09Q82.42 19.88 81.42 20.37Q80.42 20.86 78.86 20.86L78.86 20.86Q76.74 20.86 75.44 20.07Q74.14 19.28 74.14 17.70L74.14 17.70Q74.14 16.36 75.44 15.38L75.44 15.38Q75.04 15.20 74.75 15.00Q74.46 14.80 74.24 14.58L74.24 14.58L74.24 14.12L75.98 12.28Q74.82 11.26 74.82 9.66L74.82 9.66Q74.82 8.66 75.31 7.84Q75.80 7.02 76.70 6.54Q77.60 6.06 78.88 6.06L78.88 6.06Q79.72 6.06 80.44 6.30L80.44 6.30L84.20 6.30L84.20 7.86L82.50 7.98Q82.90 8.74 82.90 9.66L82.90 9.66Q82.90 10.66 82.42 11.48Q81.94 12.30 81.03 12.78Q80.12 13.26 78.88 13.26ZM78.88 11.30L78.88 11.30Q79.66 11.30 80.17 10.88Q80.68 10.46 80.68 9.68L80.68 9.68Q80.68 8.90 80.17 8.48Q79.66 8.06 78.88 8.06L78.88 8.06Q78.06 8.06 77.56 8.48Q77.06 8.90 77.06 9.68L77.06 9.68Q77.06 10.46 77.56 10.88Q78.06 11.30 78.88 11.30ZM76.48 17.44L76.48 17.44Q76.48 18.18 77.17 18.55Q77.86 18.92 78.86 18.92L78.86 18.92Q79.82 18.92 80.42 18.53Q81.02 18.14 81.02 17.48L81.02 17.48Q81.02 16.94 80.63 16.58Q80.24 16.22 79.08 16.14L79.08 16.14Q78.26 16.08 77.56 15.96L77.56 15.96Q76.98 16.28 76.73 16.66Q76.48 17.04 76.48 17.44ZM93.44 16.22L90.88 16.22L90.88 2.22L93.44 2.22L93.44 7.88L98.62 2.22L101.78 2.22L96.62 7.78L101.92 16.22L98.78 16.22L94.78 9.74L93.44 11.20L93.44 16.22ZM105.00 4.76L105.00 4.76Q104.30 4.76 103.85 4.34Q103.40 3.92 103.40 3.28L103.40 3.28Q103.40 2.64 103.85 2.23Q104.30 1.82 105.00 1.82L105.00 1.82Q105.70 1.82 106.15 2.23Q106.60 2.64 106.60 3.28L106.60 3.28Q106.60 3.92 106.15 4.34Q105.70 4.76 105.00 4.76ZM106.28 16.22L103.72 16.22L103.72 6.30L106.28 6.30L106.28 16.22ZM115.12 16.22L113.38 16.22Q111.82 16.22 110.88 15.46Q109.94 14.70 109.94 12.76L109.94 12.76L109.94 8.44L108.24 8.44L108.24 6.30L109.94 6.30L110.24 3.64L112.50 3.64L112.50 6.30L115.18 6.30L115.18 8.44L112.50 8.44L112.50 12.78Q112.50 13.50 112.81 13.77Q113.12 14.04 113.88 14.04L113.88 14.04L115.12 14.04L115.12 16.22ZM123.54 16.22L121.80 16.22Q120.24 16.22 119.30 15.46Q118.36 14.70 118.36 12.76L118.36 12.76L118.36 8.44L116.66 8.44L116.66 6.30L118.36 6.30L118.66 3.64L120.92 3.64L120.92 6.30L123.60 6.30L123.60 8.44L120.92 8.44L120.92 12.78Q120.92 13.50 121.23 13.77Q121.54 14.04 122.30 14.04L122.30 14.04L123.54 14.04L123.54 16.22ZM130.30 16.46L130.30 16.46Q128.86 16.46 127.71 15.80Q126.56 15.14 125.89 13.97Q125.22 12.80 125.22 11.26L125.22 11.26Q125.22 9.72 125.90 8.55Q126.58 7.38 127.73 6.72Q128.88 6.06 130.32 6.06L130.32 6.06Q131.74 6.06 132.89 6.72Q134.04 7.38 134.71 8.55Q135.38 9.72 135.38 11.26L135.38 11.26Q135.38 12.80 134.71 13.97Q134.04 15.14 132.88 15.80Q131.72 16.46 130.30 16.46ZM130.30 14.24L130.30 14.24Q131.30 14.24 132.04 13.49Q132.78 12.74 132.78 11.26L132.78 11.26Q132.78 9.78 132.04 9.03Q131.30 8.28 130.32 8.28L130.32 8.28Q129.30 8.28 128.57 9.03Q127.84 9.78 127.84 11.26L127.84 11.26Q127.84 12.74 128.57 13.49Q129.30 14.24 130.30 14.24ZM148.46 19.12L145.90 19.12Q144.78 18 143.91 16.53Q143.04 15.06 142.53 13.30Q142.02 11.54 142.02 9.56L142.02 9.56Q142.02 7.58 142.53 5.82Q143.04 4.06 143.91 2.59Q144.78 1.12 145.90 0L145.90 0L148.46 0L148.46 0.24Q146.66 2.14 145.60 4.53Q144.54 6.92 144.54 9.56L144.54 9.56Q144.54 12.20 145.60 14.59Q146.66 16.98 148.46 18.88L148.46 18.88L148.46 19.12ZM153.02 16.22L150.46 16.22L150.46 2.22L153.02 2.22L153.02 8.04L159.30 8.04L159.30 2.22L161.86 2.22L161.86 16.22L159.30 16.22L159.30 10.12L153.02 10.12L153.02 16.22ZM167.14 16.22L164.58 16.22L164.58 2.22L167.14 2.22L167.14 7.88L172.32 2.22L175.48 2.22L170.32 7.78L175.62 16.22L172.48 16.22L168.48 9.74L167.14 11.20L167.14 16.22ZM186.68 16.22L177.04 16.22L177.04 14.36Q178.32 13.30 179.53 12.26Q180.74 11.22 181.69 10.20Q182.64 9.18 183.21 8.21Q183.78 7.24 183.78 6.32L183.78 6.32Q183.78 5.46 183.31 4.80Q182.84 4.14 181.76 4.14L181.76 4.14Q180.66 4.14 180.10 4.86Q179.54 5.58 179.54 6.60L179.54 6.60L177.06 6.60Q177.10 5.06 177.74 4.03Q178.38 3.00 179.44 2.49Q180.50 1.98 181.82 1.98L181.82 1.98Q183.96 1.98 185.15 3.15Q186.34 4.32 186.34 6.18L186.34 6.18Q186.34 7.34 185.81 8.44Q185.28 9.54 184.42 10.56Q183.56 11.58 182.56 12.47Q181.56 13.36 180.62 14.12L180.62 14.12L186.68 14.12L186.68 16.22ZM190.64 19.12L188.08 19.12L188.08 18.88Q189.88 16.98 190.94 14.59Q192 12.20 192 9.56L192 9.56Q192 6.92 190.94 4.53Q189.88 2.14 188.08 0.24L188.08 0.24L188.08 0L190.64 0Q191.76 1.12 192.63 2.59Q193.50 4.06 194.01 5.82Q194.52 7.58 194.52 9.56L194.52 9.56Q194.52 11.54 194.01 13.30Q193.50 15.06 192.63 16.53Q191.76 18 190.64 19.12L190.64 19.12Z"></path></g></svg></svg>